<svg width="168" height="42" viewBox="0 0 168 42" fill="none" xmlns="http://www.w3.org/2000/svg">
<g filter="url(#filter0_d_45_3)">
<path d="M18.86 8V8.22H17.11L11.69 23.29H11.16L5.93 8.22H4.46V8H10.65V8.22H8.52L12.47 20.43L16.84 8.22H14.34V8H18.86ZM22.9525 10.51C22.5858 10.51 22.2692 10.3767 22.0025 10.11C21.7425 9.84333 21.6125 9.52667 21.6125 9.16C21.6125 8.78667 21.7425 8.47 22.0025 8.21C22.2692 7.95 22.5858 7.82 22.9525 7.82C23.3325 7.82 23.6492 7.95 23.9025 8.21C24.1625 8.47 24.2925 8.78667 24.2925 9.16C24.2925 9.53333 24.1625 9.85333 23.9025 10.12C23.6492 10.38 23.3325 10.51 22.9525 10.51ZM23.9925 13.8V22.78H25.2625V23H20.6325V22.78H21.9125V14.02H20.6325V13.8H23.9925ZM32.1177 23.2C31.2377 23.2 30.4477 23.0133 29.7477 22.64C29.0477 22.2667 28.4943 21.7233 28.0877 21.01C27.681 20.29 27.4777 19.42 27.4777 18.4C27.4777 17.5133 27.6577 16.7067 28.0177 15.98C28.3843 15.2533 28.9177 14.6767 29.6177 14.25C30.3177 13.8167 31.1777 13.6 32.1977 13.6C32.9043 13.6 33.5177 13.72 34.0377 13.96C34.5577 14.2 34.9577 14.5167 35.2377 14.91C35.5243 15.3033 35.6677 15.73 35.6677 16.19C35.6677 16.59 35.5477 16.9 35.3077 17.12C35.0743 17.34 34.7877 17.45 34.4477 17.45C34.2543 17.45 34.0577 17.4067 33.8577 17.32C33.6643 17.2333 33.501 17.1 33.3677 16.92C33.2343 16.74 33.1677 16.5033 33.1677 16.21C33.1677 15.8233 33.2943 15.5267 33.5477 15.32C33.801 15.1133 34.101 15.01 34.4477 15.01C34.7677 15.01 35.0477 15.11 35.2877 15.31C35.5277 15.51 35.6477 15.8033 35.6477 16.19H35.4377C35.4377 15.8233 35.351 15.4967 35.1777 15.21C35.0043 14.9233 34.7743 14.68 34.4877 14.48C34.201 14.28 33.8843 14.1267 33.5377 14.02C33.1977 13.9133 32.8543 13.86 32.5077 13.86C31.9543 13.86 31.5043 14.0067 31.1577 14.3C30.8177 14.5867 30.5577 14.9633 30.3777 15.43C30.1977 15.89 30.0743 16.3833 30.0077 16.91C29.941 17.43 29.9077 17.9267 29.9077 18.4C29.9077 18.9733 29.9443 19.53 30.0177 20.07C30.091 20.6033 30.2177 21.08 30.3977 21.5C30.5777 21.92 30.831 22.2567 31.1577 22.51C31.4843 22.7567 31.901 22.88 32.4077 22.88C32.9743 22.88 33.461 22.77 33.8677 22.55C34.2743 22.3233 34.6177 22.0133 34.8977 21.62C35.1777 21.22 35.4077 20.7633 35.5877 20.25H35.8277C35.5677 21.1033 35.1443 21.81 34.5577 22.37C33.9777 22.9233 33.1643 23.2 32.1177 23.2ZM41.2416 23.14C40.6682 23.14 40.2382 23.0233 39.9516 22.79C39.6649 22.5567 39.4716 22.2567 39.3716 21.89C39.2782 21.5233 39.2316 21.1433 39.2316 20.75V11.8C39.5716 11.8 39.9416 11.74 40.3416 11.62C40.7416 11.5 41.0616 11.36 41.3016 11.2V21.33C41.3016 21.83 41.3616 22.17 41.4816 22.35C41.6016 22.5233 41.8016 22.61 42.0816 22.61C42.4149 22.61 42.7449 22.4567 43.0716 22.15C43.3982 21.8367 43.6582 21.46 43.8516 21.02L44.0416 21.13C43.7949 21.7233 43.4349 22.2067 42.9616 22.58C42.4949 22.9533 41.9216 23.14 41.2416 23.14ZM37.8216 14.02V13.8H43.4416V14.02H37.8216ZM50.5156 23.2C49.5556 23.2 48.7256 22.98 48.0256 22.54C47.3323 22.1 46.7956 21.5167 46.4156 20.79C46.0356 20.0633 45.8456 19.2667 45.8456 18.4C45.8456 17.5333 46.0356 16.7367 46.4156 16.01C46.7956 15.2833 47.3323 14.7 48.0256 14.26C48.7256 13.82 49.5556 13.6 50.5156 13.6C51.4756 13.6 52.3023 13.82 52.9956 14.26C53.6956 14.7 54.2323 15.2833 54.6056 16.01C54.979 16.7367 55.1656 17.5333 55.1656 18.4C55.1656 19.2667 54.979 20.0633 54.6056 20.79C54.2323 21.5167 53.6956 22.1 52.9956 22.54C52.3023 22.98 51.4756 23.2 50.5156 23.2ZM50.5156 22.98C51.009 22.98 51.409 22.84 51.7156 22.56C52.0223 22.2733 52.2556 21.9033 52.4156 21.45C52.5823 20.99 52.6956 20.4933 52.7556 19.96C52.8156 19.42 52.8456 18.9 52.8456 18.4C52.8456 17.8933 52.8156 17.3733 52.7556 16.84C52.6956 16.3067 52.5823 15.8133 52.4156 15.36C52.2556 14.9 52.0223 14.53 51.7156 14.25C51.409 13.9633 51.009 13.82 50.5156 13.82C50.0156 13.82 49.6123 13.9633 49.3056 14.25C48.999 14.53 48.7623 14.9 48.5956 15.36C48.4356 15.8133 48.3256 16.3067 48.2656 16.84C48.2056 17.3733 48.1756 17.8933 48.1756 18.4C48.1756 18.9 48.2056 19.42 48.2656 19.96C48.3256 20.4933 48.4356 20.99 48.5956 21.45C48.7623 21.9033 48.999 22.2733 49.3056 22.56C49.6123 22.84 50.0156 22.98 50.5156 22.98ZM60.5075 18.64C60.5075 18.0133 60.5575 17.4033 60.6575 16.81C60.7575 16.21 60.9175 15.67 61.1375 15.19C61.3575 14.7033 61.6475 14.32 62.0075 14.04C62.3742 13.7533 62.8208 13.61 63.3475 13.61C63.7408 13.61 64.0775 13.69 64.3575 13.85C64.6375 14.01 64.8508 14.22 64.9975 14.48C65.1442 14.7333 65.2175 15.01 65.2175 15.31C65.2175 15.6833 65.1008 16.0033 64.8675 16.27C64.6342 16.5367 64.3208 16.67 63.9275 16.67C63.5208 16.67 63.1975 16.5533 62.9575 16.32C62.7242 16.0867 62.6075 15.8033 62.6075 15.47C62.6075 15.0567 62.7408 14.74 63.0075 14.52C63.2742 14.2933 63.5775 14.18 63.9175 14.18C64.1575 14.18 64.3742 14.2333 64.5675 14.34C64.7675 14.44 64.9208 14.5767 65.0275 14.75C65.1408 14.9167 65.1975 15.1033 65.1975 15.31H64.9775C64.9775 15.0433 64.9075 14.8 64.7675 14.58C64.6342 14.3533 64.4408 14.1733 64.1875 14.04C63.9408 13.9 63.6508 13.83 63.3175 13.83C62.8575 13.83 62.4575 13.9667 62.1175 14.24C61.7775 14.5067 61.5008 14.87 61.2875 15.33C61.0742 15.79 60.9142 16.3067 60.8075 16.88C60.7008 17.4467 60.6475 18.0333 60.6475 18.64H60.5075ZM60.6475 13.8V22.78H62.0175V23H57.3075V22.78H58.5875V14.02H57.3075V13.8H60.6475ZM69.3119 10.51C68.9452 10.51 68.6285 10.3767 68.3619 10.11C68.1019 9.84333 67.9719 9.52667 67.9719 9.16C67.9719 8.78667 68.1019 8.47 68.3619 8.21C68.6285 7.95 68.9452 7.82 69.3119 7.82C69.6919 7.82 70.0085 7.95 70.2619 8.21C70.5219 8.47 70.6519 8.78667 70.6519 9.16C70.6519 9.53333 70.5219 9.85333 70.2619 10.12C70.0085 10.38 69.6919 10.51 69.3119 10.51ZM70.3519 13.8V22.78H71.6219V23H66.9919V22.78H68.2719V14.02H66.9919V13.8H70.3519ZM81.3494 23.2C81.0027 23.2 80.6827 23.1467 80.3894 23.04C80.1027 22.94 79.8694 22.7633 79.6894 22.51C79.516 22.2567 79.4294 21.9067 79.4294 21.46V16.91C79.4294 16.43 79.3894 15.96 79.3094 15.5C79.2294 15.0333 79.0594 14.65 78.7994 14.35C78.546 14.0433 78.1527 13.89 77.6194 13.89C77.2927 13.89 76.956 13.93 76.6094 14.01C76.2694 14.0833 75.9494 14.1967 75.6494 14.35C75.356 14.5033 75.1194 14.6933 74.9394 14.92C74.7594 15.1467 74.6694 15.41 74.6694 15.71H74.4094C74.4094 15.35 74.5327 15.0633 74.7794 14.85C75.0327 14.63 75.3127 14.52 75.6194 14.52C75.946 14.52 76.2394 14.62 76.4994 14.82C76.766 15.02 76.8994 15.3033 76.8994 15.67C76.8994 16.09 76.7627 16.4 76.4894 16.6C76.2227 16.7933 75.9327 16.89 75.6194 16.89C75.2727 16.89 74.9794 16.79 74.7394 16.59C74.506 16.3833 74.3894 16.09 74.3894 15.71C74.3894 15.3767 74.4894 15.0833 74.6894 14.83C74.896 14.5767 75.1727 14.3633 75.5194 14.19C75.8727 14.01 76.266 13.8733 76.6994 13.78C77.1327 13.6867 77.576 13.64 78.0294 13.64C78.976 13.64 79.696 13.7967 80.1894 14.11C80.6894 14.4167 81.0294 14.82 81.2094 15.32C81.396 15.82 81.4894 16.35 81.4894 16.91V21.94C81.4894 22.1667 81.5327 22.36 81.6194 22.52C81.7127 22.68 81.8894 22.76 82.1494 22.76C82.3494 22.76 82.5727 22.6733 82.8194 22.5C83.066 22.3267 83.2627 22.0867 83.4094 21.78L83.5294 21.96C83.3494 22.3267 83.066 22.6267 82.6794 22.86C82.2994 23.0867 81.856 23.2 81.3494 23.2ZM76.5394 23.2C75.6727 23.2 74.9794 22.98 74.4594 22.54C73.946 22.0933 73.6894 21.49 73.6894 20.73C73.6894 19.8367 74.0694 19.1433 74.8294 18.65C75.5894 18.1567 76.6794 17.91 78.0994 17.91H80.3594V18.11H78.2894C77.7227 18.11 77.2727 18.2433 76.9394 18.51C76.606 18.77 76.3627 19.09 76.2094 19.47C76.056 19.8433 75.9794 20.21 75.9794 20.57C75.9794 20.8967 76.0227 21.22 76.1094 21.54C76.2027 21.86 76.3494 22.1233 76.5494 22.33C76.7494 22.5367 77.0127 22.64 77.3394 22.64C77.6994 22.64 78.036 22.5267 78.3494 22.3C78.6694 22.0667 78.9294 21.71 79.1294 21.23C79.3294 20.7433 79.4294 20.1233 79.4294 19.37H79.5794C79.5794 20.1367 79.466 20.8067 79.2394 21.38C79.0127 21.9533 78.676 22.4 78.2294 22.72C77.7827 23.04 77.2194 23.2 76.5394 23.2ZM90.2606 23V22.78H96.4306C96.9906 22.78 97.504 22.6133 97.9706 22.28C98.444 21.9467 98.8206 21.4833 99.1006 20.89C99.3806 20.29 99.5206 19.5933 99.5206 18.8C99.5206 18.0067 99.3806 17.36 99.1006 16.86C98.8206 16.36 98.444 15.9933 97.9706 15.76C97.504 15.5267 96.9906 15.41 96.4306 15.41H94.0906V15.26H96.7506C97.7173 15.26 98.6006 15.3767 99.4006 15.61C100.207 15.8367 100.851 16.2133 101.331 16.74C101.811 17.2667 102.051 17.9733 102.051 18.86C102.051 20.34 101.581 21.4 100.641 22.04C99.7006 22.68 98.404 23 96.7506 23H90.2606ZM92.0606 22.91V8.09H94.3006V22.91H92.0606ZM94.0906 15.34V15.19H96.2306C96.7306 15.19 97.2006 15.0833 97.6406 14.87C98.0806 14.65 98.4373 14.3 98.7106 13.82C98.984 13.34 99.1206 12.7033 99.1206 11.91C99.1206 11.1167 98.984 10.4467 98.7106 9.9C98.4373 9.34667 98.0806 8.93 97.6406 8.65C97.2006 8.36333 96.7306 8.22 96.2306 8.22H90.2606V8H96.3406C97.9006 8 99.144 8.29333 100.071 8.88C100.997 9.46 101.461 10.4 101.461 11.7C101.461 12.98 101.021 13.9067 100.141 14.48C99.2673 15.0533 98.0006 15.34 96.3406 15.34H94.0906ZM109.194 23.2C108.314 23.2 107.52 23.01 106.814 22.63C106.107 22.25 105.547 21.7033 105.134 20.99C104.727 20.27 104.524 19.4067 104.524 18.4C104.524 17.3933 104.72 16.5333 105.114 15.82C105.514 15.1 106.057 14.55 106.744 14.17C107.437 13.79 108.227 13.6 109.114 13.6C110.094 13.6 110.884 13.7967 111.484 14.19C112.09 14.5833 112.534 15.0967 112.814 15.73C113.094 16.3633 113.234 17.0433 113.234 17.77H105.864V17.55H110.874C110.874 17.17 110.854 16.7667 110.814 16.34C110.78 15.9067 110.707 15.5 110.594 15.12C110.48 14.74 110.304 14.43 110.064 14.19C109.824 13.9433 109.507 13.82 109.114 13.82C108.667 13.82 108.297 13.9467 108.004 14.2C107.717 14.4533 107.49 14.7967 107.324 15.23C107.164 15.6567 107.05 16.14 106.984 16.68C106.917 17.2133 106.884 17.7667 106.884 18.34C106.884 18.9333 106.92 19.5067 106.994 20.06C107.067 20.6067 107.194 21.0967 107.374 21.53C107.56 21.9567 107.817 22.2967 108.144 22.55C108.477 22.8033 108.9 22.93 109.414 22.93C110.36 22.93 111.144 22.6733 111.764 22.16C112.384 21.6467 112.817 21.01 113.064 20.25H113.314C113.054 21.09 112.584 21.7933 111.904 22.36C111.23 22.92 110.327 23.2 109.194 23.2ZM118.701 13.8V22.78H119.881V23H115.361V22.78H116.641V14.02H115.361V13.8H118.701ZM124.801 16.61V22.78H126.081V23H121.551V22.78H122.741V16.84C122.741 16.28 122.714 15.79 122.661 15.37C122.614 14.9433 122.511 14.61 122.351 14.37C122.191 14.13 121.937 14.01 121.591 14.01C121.024 14.01 120.551 14.16 120.171 14.46C119.797 14.76 119.504 15.1433 119.291 15.61C119.077 16.0767 118.924 16.57 118.831 17.09C118.744 17.6033 118.701 18.0833 118.701 18.53L118.541 18.59C118.541 18.1233 118.584 17.6067 118.671 17.04C118.757 16.4667 118.921 15.92 119.161 15.4C119.401 14.88 119.751 14.45 120.211 14.11C120.671 13.77 121.271 13.6 122.011 13.6C122.777 13.6 123.361 13.73 123.761 13.99C124.161 14.25 124.434 14.6067 124.581 15.06C124.727 15.5133 124.801 16.03 124.801 16.61ZM132.894 23.2C131.934 23.2 131.104 22.98 130.404 22.54C129.71 22.1 129.174 21.5167 128.794 20.79C128.414 20.0633 128.224 19.2667 128.224 18.4C128.224 17.5333 128.414 16.7367 128.794 16.01C129.174 15.2833 129.71 14.7 130.404 14.26C131.104 13.82 131.934 13.6 132.894 13.6C133.854 13.6 134.68 13.82 135.374 14.26C136.074 14.7 136.61 15.2833 136.984 16.01C137.357 16.7367 137.544 17.5333 137.544 18.4C137.544 19.2667 137.357 20.0633 136.984 20.79C136.61 21.5167 136.074 22.1 135.374 22.54C134.68 22.98 133.854 23.2 132.894 23.2ZM132.894 22.98C133.387 22.98 133.787 22.84 134.094 22.56C134.4 22.2733 134.634 21.9033 134.794 21.45C134.96 20.99 135.074 20.4933 135.134 19.96C135.194 19.42 135.224 18.9 135.224 18.4C135.224 17.8933 135.194 17.3733 135.134 16.84C135.074 16.3067 134.96 15.8133 134.794 15.36C134.634 14.9 134.4 14.53 134.094 14.25C133.787 13.9633 133.387 13.82 132.894 13.82C132.394 13.82 131.99 13.9633 131.684 14.25C131.377 14.53 131.14 14.9 130.974 15.36C130.814 15.8133 130.704 16.3067 130.644 16.84C130.584 17.3733 130.554 17.8933 130.554 18.4C130.554 18.9 130.584 19.42 130.644 19.96C130.704 20.4933 130.814 20.99 130.974 21.45C131.14 21.9033 131.377 22.2733 131.684 22.56C131.99 22.84 132.394 22.98 132.894 22.98ZM142.106 10.51C141.739 10.51 141.422 10.3767 141.156 10.11C140.896 9.84333 140.766 9.52667 140.766 9.16C140.766 8.78667 140.896 8.47 141.156 8.21C141.422 7.95 141.739 7.82 142.106 7.82C142.486 7.82 142.802 7.95 143.056 8.21C143.316 8.47 143.446 8.78667 143.446 9.16C143.446 9.53333 143.316 9.85333 143.056 10.12C142.802 10.38 142.486 10.51 142.106 10.51ZM143.146 13.8V22.78H144.416V23H139.786V22.78H141.066V14.02H139.786V13.8H143.146ZM149.443 23.14C148.87 23.14 148.44 23.0233 148.153 22.79C147.866 22.5567 147.673 22.2567 147.573 21.89C147.48 21.5233 147.433 21.1433 147.433 20.75V11.8C147.773 11.8 148.143 11.74 148.543 11.62C148.943 11.5 149.263 11.36 149.503 11.2V21.33C149.503 21.83 149.563 22.17 149.683 22.35C149.803 22.5233 150.003 22.61 150.283 22.61C150.616 22.61 150.946 22.4567 151.273 22.15C151.6 21.8367 151.86 21.46 152.053 21.02L152.243 21.13C151.996 21.7233 151.636 22.2067 151.163 22.58C150.696 22.9533 150.123 23.14 149.443 23.14ZM146.023 14.02V13.8H151.643V14.02H146.023Z" fill="black"/>
</g>
<defs>
<filter id="filter0_d_45_3" x="0.459961" y="7.81982" width="155.783" height="23.4702" filterUnits="userSpaceOnUse" color-interpolation-filters="sRGB">
<feFlood flood-opacity="0" result="BackgroundImageFix"/>
<feColorMatrix in="SourceAlpha" type="matrix" values="0 0 0 0 0 0 0 0 0 0 0 0 0 0 0 0 0 0 127 0" result="hardAlpha"/>
<feOffset dy="4"/>
<feGaussianBlur stdDeviation="2"/>
<feComposite in2="hardAlpha" operator="out"/>
<feColorMatrix type="matrix" values="0 0 0 0 0 0 0 0 0 0 0 0 0 0 0 0 0 0 0.25 0"/>
<feBlend mode="normal" in2="BackgroundImageFix" result="effect1_dropShadow_45_3"/>
<feBlend mode="normal" in="SourceGraphic" in2="effect1_dropShadow_45_3" result="shape"/>
</filter>
</defs>
</svg>
